<svg xmlns="http://www.w3.org/2000/svg" width="24" height="24" fill="rgba(22, 24, 35, 1)" viewBox="0 0 48 48"><path fill-rule="evenodd" d="M24 7a7 7 0 1 0 0 14 7 7 0 0 0 0-14m-11 7c0-6.075 4.925-11 11-11s11 4.925 11 11-4.924 11-11 11-11-4.925-11-11m11 19c-5.939 0-10.95 3.984-12.503 9.426-.151.531-.675.883-1.217.773L8.32 42.8c-.54-.11-.893-.64-.752-1.173C9.498 34.358 16.122 29 24 29c7.88 0 14.502 5.358 16.432 12.628.142.534-.21 1.063-.752 1.173l-1.96.398c-.541.11-1.065-.242-1.216-.773C34.95 36.984 29.939 33 24 33" clip-rule="evenodd"/></svg>